<?xml version="1.0" encoding="UTF-8" standalone="no"?><!DOCTYPE svg PUBLIC "-//W3C//DTD SVG 1.1//EN" "http://www.w3.org/Graphics/SVG/1.1/DTD/svg11.dtd"><svg width="100%" height="100%" viewBox="0 0 1459 129" version="1.1" xmlns="http://www.w3.org/2000/svg" xmlns:xlink="http://www.w3.org/1999/xlink" xml:space="preserve" xmlns:serif="http://www.serif.com/" style="fill-rule:evenodd;clip-rule:evenodd;stroke-linejoin:round;stroke-miterlimit:2;"><path d="M72.778,35.797l-0.079,0.869c-1.343,14.461 -16.199,19.044 -35.718,19.044l-1.185,0c-20.466,0 -35.797,-4.82 -35.797,-22.363l0,-1.106c0,-17.543 15.33,-22.363 35.797,-22.363l1.185,0c19.518,0 34.374,4.583 35.718,19.044l0.079,0.869l-24.418,0l-0.316,-0.869c-1.027,-2.766 -4.425,-4.662 -11.3,-4.662l-0.711,0c-8.376,0 -12.169,3.003 -12.169,8.218l0,0.632c0,5.215 3.793,8.218 12.169,8.218l0.711,0c6.875,0 10.273,-1.897 11.3,-4.662l0.316,-0.869l24.418,0Zm49.151,-8.929l-16.278,0l-0.395,8.534c-0.632,13.592 -4.346,19.518 -22.679,19.518l-6.322,0l0,-16.99l1.897,0c5.294,0 6.875,-1.738 7.112,-7.981l0.632,-18.886l59.74,0l0,43.462l-23.706,0l0,-27.657Zm55.71,27.657l-25.366,0l0,-43.462l23.311,0l0,22.521l19.755,-22.521l25.366,0l0,43.462l-23.311,0l0,-22.521l-19.755,22.521Zm109.602,-43.462l0,27.657l12.485,0l0,-27.657l23.706,0l0,43.462l-96.09,0l0,-43.462l23.706,0l0,27.657c0,0 10.773,3.793 12.485,0c2.081,-4.61 0,-27.657 0,-27.657l23.706,0Zm83.92,43.462l-17.385,-19.281l0,19.281l-23.706,0l0,-43.462l23.706,0l0,18.886l17.227,-18.886l29.317,0l-22.047,20.15l22.758,23.311l-29.87,0Zm63.77,-44.647l1.106,0c20.783,0 36.192,4.82 36.192,22.363l0,1.106c0,17.543 -15.409,22.363 -36.192,22.363l-1.106,0c-20.783,0 -36.192,-4.82 -36.192,-22.363l0,-1.106c0,-17.543 15.409,-22.363 36.192,-22.363Zm0.237,14.382c-8.692,0 -12.564,3.003 -12.564,8.218l0,0.632c0,5.215 3.872,8.218 12.564,8.218l0.632,0c8.692,0 12.564,-3.003 12.564,-8.218l0,-0.632c0,-5.215 -3.872,-8.218 -12.564,-8.218l-0.632,0Zm76.176,30.265l-12.09,-27.736l0,27.736l-21.415,0l0,-43.462l33.584,0l9.72,23.469l9.641,-23.469l35.164,0l0,43.462l-22.995,0l0,-27.736l-12.09,27.736l-19.518,0Zm98.539,-3.951l9.483,0c4.504,0 6.243,-1.264 7.507,-3.556l-15.883,0l-19.123,-35.955l26.235,0l12.801,26.867l12.406,-26.867l24.892,0l-19.913,39.352c-6.006,11.932 -11.695,15.172 -28.211,15.172l-10.194,0l0,-15.014Zm96.09,3.951l-12.09,-27.736l0,27.736l-21.415,0l0,-43.462l33.584,0l9.72,23.469l9.641,-23.469l35.164,0l0,43.462l-22.995,0l0,-27.736l-12.09,27.736l-19.518,0Zm84.948,-14.224l0,14.224l-23.706,0l0,-43.462l23.706,0l0,13.592l20.704,0l0,-13.592l23.706,0l0,43.462l-23.706,0l0,-14.224l-20.704,0Zm117.82,-10.194l0,24.418l-22.6,0l0,-5.531c-4.504,4.188 -11.3,6.322 -20.545,6.322l-1.185,0c-15.883,0 -23.548,-4.662 -23.548,-13.355l0,-0.474c0,-8.771 5.848,-13.038 26.946,-13.513c7.033,-0.158 13.671,-0.158 18.096,-0.158l0,-0.158c0,-3.319 -2.529,-5.294 -8.771,-5.294l-0.79,0c-6.164,0 -8.85,1.106 -9.72,3.24l-0.158,0.395l-24.259,0l0.158,-0.711c2.45,-10.984 13.513,-15.409 33.979,-15.409l1.422,0c17.306,0 30.976,3.24 30.976,20.229Zm-35.006,12.485l1.027,0c6.559,0 10.826,-1.422 11.142,-5.69c-3.635,0 -7.191,0.079 -12.011,0.237c-6.954,0.237 -8.771,0.79 -8.771,2.766l0,0.158c0,1.897 2.134,2.529 8.613,2.529Zm73.173,-0.316c-4.82,0 -6.717,1.58 -7.349,6.638l-0.711,5.61l-24.497,0l1.027,-7.744c0.869,-6.559 3.24,-9.483 8.534,-10.668c-6.164,-1.58 -8.85,-5.61 -8.85,-10.905l0,-0.632c0,-7.902 7.033,-13.513 24.576,-13.513l43.066,0l0,43.462l-23.706,0l0,-12.248l-12.09,0Zm-2.371,-19.123c-3.398,0 -5.215,1.106 -5.215,3.398l0,0.237c0,2.292 1.817,3.398 5.215,3.398l14.461,0l0,-7.033l-14.461,0Zm82.103,27.42l9.483,0c4.504,0 6.243,-1.264 7.507,-3.556l-15.883,0l-19.123,-35.955l26.235,0l12.801,26.867l12.406,-26.867l24.892,0l-19.913,39.352c-6.006,11.932 -11.695,15.172 -28.211,15.172l-10.194,0l0,-15.014Zm59.424,-21.81c0,-16.357 10.273,-23.943 29.554,-24.971l10.194,-0.553c4.899,-0.237 6.796,-0.79 7.191,-2.529l0.158,-0.711l23.706,0l0,2.292c0,5.452 -1.817,9.878 -5.61,12.169c-3.477,2.055 -6.638,2.924 -16.831,3.398l-14.935,0.711c-8.771,0.395 -11.458,2.766 -12.011,6.243l-0.079,0.474c4.109,-2.134 10.589,-3.872 19.834,-3.872l0.948,0c23.074,0 30.66,5.61 30.66,15.646l0,0.79c0,12.169 -11.063,17.859 -35.401,17.859l-2.055,0c-24.18,0 -35.322,-7.033 -35.322,-25.366l0,-1.58Zm24.576,8.297l0,0.237c0,2.687 2.766,3.556 11.458,3.556l0.711,0c9.008,0 12.09,-0.79 12.09,-3.714l0,-0.158c0,-2.45 -2.687,-3.714 -11.695,-3.714l-0.79,0c-9.245,0 -11.774,1.106 -11.774,3.793Zm88.82,-27.183l1.106,0c20.783,0 36.192,4.82 36.192,22.363l0,1.106c0,17.543 -15.409,22.363 -36.192,22.363l-1.106,0c-20.783,0 -36.192,-4.82 -36.192,-22.363l0,-1.106c0,-17.543 15.409,-22.363 36.192,-22.363Zm0.237,14.382c-8.692,0 -12.564,3.003 -12.564,8.218l0,0.632c0,5.215 3.872,8.218 12.564,8.218l0.632,0c8.692,0 12.564,-3.003 12.564,-8.218l0,-0.632c0,-5.215 -3.872,-8.218 -12.564,-8.218l-0.632,0Zm85.264,31.055c-6.559,0 -12.643,-1.106 -18.886,-4.346l0,13.829l-23.706,0l0,-53.734l22.916,0l0,5.531c4.662,-3.951 12.564,-6.322 20.466,-6.322l1.185,0c16.594,0 27.341,7.349 27.341,21.731l0,1.58c0,14.382 -11.537,21.731 -28.131,21.731l-1.185,0Zm-7.981,-13.987l1.185,0c8.297,0 12.248,-2.766 12.248,-8.218l0,-0.632c0,-5.452 -3.951,-8.218 -12.248,-8.218l-1.106,0c-8.297,0 -12.406,3.082 -12.406,8.218l0,0.632c0,5.136 4.03,8.218 12.327,8.218Zm83.999,13.197l-17.385,-19.281l0,19.281l-23.706,0l0,-43.462l23.706,0l0,18.886l17.227,-18.886l29.317,0l-22.047,20.15l22.758,23.311l-29.87,0Zm97.354,-24.418l0,24.418l-22.6,0l0,-5.531c-4.504,4.188 -11.3,6.322 -20.545,6.322l-1.185,0c-15.883,0 -23.548,-4.662 -23.548,-13.355l0,-0.474c0,-8.771 5.848,-13.038 26.946,-13.513c7.033,-0.158 13.671,-0.158 18.096,-0.158l0,-0.158c0,-3.319 -2.529,-5.294 -8.771,-5.294l-0.79,0c-6.164,0 -8.85,1.106 -9.72,3.24l-0.158,0.395l-24.259,0l0.158,-0.711c2.45,-10.984 13.513,-15.409 33.979,-15.409l1.422,0c17.306,0 30.976,3.24 30.976,20.229Zm-35.006,12.485l1.027,0c6.559,0 10.826,-1.422 11.142,-5.69c-3.635,0 -7.191,0.079 -12.011,0.237c-6.954,0.237 -8.771,0.79 -8.771,2.766l0,0.158c0,1.897 2.134,2.529 8.613,2.529Zm-1245.936,45.237l13.959,0l0,3.861l-4.93,0l0,36.532l-4.158,0l0,-36.532l-4.871,0l0,-3.861Zm41.165,40.393l0,-40.393l10.098,0l0,3.861l-5.94,0l0,13.84l5.346,0l0,3.742l-5.346,0l0,15.088l6,0l0,3.861l-10.158,0Zm37.482,-6.891l0,-26.612c0,-5.049 2.614,-7.128 6.594,-7.128l0.832,0c3.98,0 6.594,2.079 6.594,7.128l0,26.612c0,5.049 -2.614,7.128 -6.594,7.128l-0.832,0c-3.98,0 -6.594,-2.079 -6.594,-7.128Zm4.158,0c0,2.495 1.01,3.445 2.614,3.445l0.475,0c1.604,0 2.614,-0.95 2.614,-3.445l0,-26.612c0,-2.495 -1.01,-3.445 -2.614,-3.445l-0.475,0c-1.604,0 -2.614,0.95 -2.614,3.445l0,26.612Zm51.738,-16.513c0,4.693 -1.96,7.009 -6.415,7.009l-2.673,0l0,16.395l-4.158,0l0,-40.393l7.069,0c4.217,0 6.178,2.02 6.178,6.772l0,10.217Zm-4.158,0.119l0,-10.336c0,-2.02 -0.653,-2.911 -2.673,-2.911l-2.257,0l0,16.276l2.554,0c1.782,0 2.376,-0.832 2.376,-3.029Zm42.294,23.285l0,-28.75l-0.119,0l-5.821,28.75l-4.158,0l0,-40.393l3.92,0l0,28.75l0.119,0l5.821,-28.75l4.158,0l0,40.393l-3.92,0Zm37.304,-14.019l-1.129,14.019l-4.158,0l1.247,-14.613c0.238,-2.732 0.832,-4.217 2.317,-4.811c-1.96,-0.653 -2.911,-2.317 -2.911,-4.871l0,-9.385c0,-4.93 1.723,-6.712 6.534,-6.712l6.772,0l0,40.393l-4.158,0l0,-17.642l-1.723,0c-1.901,0 -2.554,0.713 -2.792,3.623Zm-0.475,-10.276c0,2.079 0.653,2.851 2.376,2.851l2.614,0l0,-15.088l-2.614,0c-1.723,0 -2.376,0.772 -2.376,2.851l0,9.385Zm81.617,24.295l-4.158,0l0,-36.532l-5.287,0l0,36.532l-4.158,0l0,-40.393l13.603,0l0,40.393Zm42.234,-23.404c0,4.693 -1.96,7.009 -6.415,7.009l-2.673,0l0,16.395l-4.158,0l0,-40.393l7.069,0c4.217,0 6.178,2.02 6.178,6.772l0,10.217Zm-4.158,0.119l0,-10.336c0,-2.02 -0.653,-2.911 -2.673,-2.911l-2.257,0l0,16.276l2.554,0c1.782,0 2.376,-0.832 2.376,-3.029Zm31.839,16.395l0,-26.612c0,-5.049 2.614,-7.128 6.594,-7.128l0.832,0c3.98,0 6.594,2.079 6.594,7.128l0,26.612c0,5.049 -2.614,7.128 -6.594,7.128l-0.832,0c-3.98,0 -6.594,-2.079 -6.594,-7.128Zm4.158,0c0,2.495 1.01,3.445 2.614,3.445l0.475,0c1.604,0 2.614,-0.95 2.614,-3.445l0,-26.612c0,-2.495 -1.01,-3.445 -2.614,-3.445l-0.475,0c-1.604,0 -2.614,0.95 -2.614,3.445l0,26.612Zm51.857,0.178c0,4.93 -1.663,6.712 -6.475,6.712l-6.891,0l0,-40.393l6.712,0c4.811,0 6.475,1.782 6.475,6.712l0,8.257c0,2.554 -0.594,4.217 -2.97,4.871c2.495,0.594 3.148,2.317 3.148,4.99l0,8.851Zm-4.099,0l0,-8.851c0,-2.673 -0.891,-3.148 -3.148,-3.148l-2.02,0l0,14.85l2.792,0c1.723,0 2.376,-0.772 2.376,-2.851Zm-2.554,-29.819l-2.614,0l0,14.256l2.02,0c2.02,0 2.97,-0.475 2.97,-3.148l0,-8.257c0,-2.079 -0.653,-2.851 -2.376,-2.851Zm35.047,36.532l0,-40.393l10.098,0l0,3.861l-5.94,0l0,13.84l5.346,0l0,3.742l-5.346,0l0,15.088l6,0l0,3.861l-10.158,0Zm51.085,-23.404c0,4.693 -1.96,7.009 -6.415,7.009l-2.673,0l0,16.395l-4.158,0l0,-40.393l7.069,0c4.217,0 6.178,2.02 6.178,6.772l0,10.217Zm-4.158,0.119l0,-10.336c0,-2.02 -0.653,-2.911 -2.673,-2.911l-2.257,0l0,16.276l2.554,0c1.782,0 2.376,-0.832 2.376,-3.029Zm32.195,23.285l0,-40.393l10.098,0l0,3.861l-5.94,0l0,13.84l5.346,0l0,3.742l-5.346,0l0,15.088l6,0l0,3.861l-10.158,0Zm51.56,0l-4.158,0l0,-18.533l-5.405,0l0,18.533l-4.158,0l0,-40.393l4.158,0l0,17.999l5.405,0l0,-17.999l4.158,0l0,40.393Zm42.709,0l-4.158,0l0,-18.533l-5.405,0l0,18.533l-4.158,0l0,-40.393l4.158,0l0,17.999l5.405,0l0,-17.999l4.158,0l0,40.393Zm38.076,0l-0.891,-9.029l-4.811,0l-0.891,9.029l-3.98,0l4.752,-40.393l5.168,0l4.752,40.393l-4.099,0Zm-3.386,-33.205l-1.96,20.315l4.099,0l-2.02,-20.315l-0.119,0Zm39.383,19.187l-1.129,14.019l-4.158,0l1.247,-14.613c0.238,-2.732 0.832,-4.217 2.317,-4.811c-1.96,-0.653 -2.911,-2.317 -2.911,-4.871l0,-9.385c0,-4.93 1.723,-6.712 6.534,-6.712l6.772,0l0,40.393l-4.158,0l0,-17.642l-1.723,0c-1.901,0 -2.554,0.713 -2.792,3.623Zm-0.475,-10.276c0,2.079 0.653,2.851 2.376,2.851l2.614,0l0,-15.088l-2.614,0c-1.723,0 -2.376,0.772 -2.376,2.851l0,9.385Zm81.617,24.295l-4.158,0l0,-36.532l-5.287,0l0,36.532l-4.158,0l0,-40.393l13.603,0l0,40.393Zm42.234,-23.404c0,4.693 -1.96,7.009 -6.415,7.009l-2.673,0l0,16.395l-4.158,0l0,-40.393l7.069,0c4.217,0 6.178,2.02 6.178,6.772l0,10.217Zm-4.158,0.119l0,-10.336c0,-2.02 -0.653,-2.911 -2.673,-2.911l-2.257,0l0,16.276l2.554,0c1.782,0 2.376,-0.832 2.376,-3.029Zm40.096,23.285l-0.891,-9.029l-4.811,0l-0.891,9.029l-3.98,0l4.752,-40.393l5.168,0l4.752,40.393l-4.099,0Zm-3.386,-33.205l-1.96,20.315l4.099,0l-2.02,-20.315l-0.119,0Zm44.491,33.205l-5.168,-19.721l-0.178,0l0,19.721l-4.158,0l0,-40.393l4.158,0l0,18.474l0.178,0l4.93,-18.474l4.217,0l-5.643,19.187l5.881,21.206l-4.217,0Zm29.463,-40.393l13.959,0l0,3.861l-4.93,0l0,36.532l-4.158,0l0,-36.532l-4.871,0l0,-3.861Zm51.263,40.393l0,-28.75l-0.119,0l-5.821,28.75l-4.158,0l0,-40.393l3.92,0l0,28.75l0.119,0l5.821,-28.75l4.158,0l0,40.393l-3.92,0Zm42.412,0l-5.168,-19.721l-0.178,0l0,19.721l-4.158,0l0,-40.393l4.158,0l0,18.474l0.178,0l4.93,-18.474l4.217,0l-5.643,19.187l5.881,21.206l-4.217,0Zm30.413,-6.891l0,-26.612c0,-5.049 2.614,-7.128 6.594,-7.128l0.832,0c3.98,0 6.594,2.079 6.594,7.128l0,26.612c0,5.049 -2.614,7.128 -6.594,7.128l-0.832,0c-3.98,0 -6.594,-2.079 -6.594,-7.128Zm4.158,0c0,2.495 1.01,3.445 2.614,3.445l0.475,0c1.604,0 2.614,-0.95 2.614,-3.445l0,-26.612c0,-2.495 -1.01,-3.445 -2.614,-3.445l-0.475,0c-1.604,0 -2.614,0.95 -2.614,3.445l0,26.612Zm45.085,-34.868c-3.386,0 -4.871,-1.426 -4.871,-3.802l0,-0.653l3.445,0l0,0.416c0,0.95 0.416,1.604 1.544,1.604l0.059,0c1.129,0 1.544,-0.653 1.544,-1.604l0,-0.416l3.445,0l0,0.653c0,2.376 -1.485,3.802 -4.871,3.802l-0.297,0Zm3.505,41.759l0,-28.75l-0.119,0l-5.821,28.75l-4.158,0l0,-40.393l3.92,0l0,28.75l0.119,0l5.821,-28.75l4.158,0l0,40.393l-3.92,0Z" style="fill:#222;"/></svg>