<?xml version="1.0" encoding="UTF-8" standalone="no"?><!DOCTYPE svg PUBLIC "-//W3C//DTD SVG 1.1//EN" "http://www.w3.org/Graphics/SVG/1.1/DTD/svg11.dtd"><svg width="100%" height="100%" viewBox="0 0 1220 54" version="1.1" xmlns="http://www.w3.org/2000/svg" xmlns:xlink="http://www.w3.org/1999/xlink" xml:space="preserve" xmlns:serif="http://www.serif.com/" style="fill-rule:evenodd;clip-rule:evenodd;stroke-linejoin:round;stroke-miterlimit:2;"><path d="M0.313,6.916l0,4.38l5.525,0l0,41.44l4.717,0l0,-41.44l5.593,0l0,-4.38l-15.835,0Z" style="fill:#202124;fill-rule:nonzero;stroke:#202124;stroke-width:0.63px;"/><path d="M45.796,52.736l11.522,0l0,-4.38l-6.806,0l0,-17.115l6.064,0l0,-4.245l-6.064,0l0,-15.7l6.738,0l0,-4.38l-11.455,0l0,45.82Z" style="fill:#202124;fill-rule:nonzero;stroke:#202124;stroke-width:0.63px;"/><path d="M87.101,44.92c0,5.728 2.965,8.086 7.479,8.086l0.943,0c4.515,0 7.479,-2.358 7.479,-8.086l0,-30.187c0,-5.728 -2.965,-8.086 -7.479,-8.086l-0.943,0c-4.515,0 -7.479,2.358 -7.479,8.086l0,30.187Zm4.717,0l0,-30.187c0,-2.83 1.146,-3.908 2.965,-3.908l0.539,0c1.819,0 2.965,1.078 2.965,3.908l0,30.187c0,2.83 -1.146,3.908 -2.965,3.908l-0.539,0c-1.819,0 -2.965,-1.078 -2.965,-3.908Z" style="fill:#202124;fill-rule:nonzero;stroke:#202124;stroke-width:0.63px;"/><path d="M149.295,26.187l0,-11.59c0,-5.391 -2.224,-7.682 -7.008,-7.682l-8.019,0l0,45.82l4.717,0l0,-18.598l3.032,0c5.054,0 7.277,-2.628 7.277,-7.951Zm-4.717,0.135c0,2.493 -0.674,3.437 -2.695,3.437l-2.897,0l0,-18.463l2.561,0c2.291,0 3.032,1.011 3.032,3.302l0,11.725Z" style="fill:#202124;fill-rule:nonzero;stroke:#202124;stroke-width:0.63px;"/><path d="M191.342,52.736l4.447,0l0,-45.82l-4.717,0l-6.603,32.613l-0.135,0l0,-32.613l-4.447,0l0,45.82l4.717,0l6.603,-32.613l0.135,0l0,32.613Z" style="fill:#202124;fill-rule:nonzero;stroke:#202124;stroke-width:0.63px;"/><path d="M232.445,36.834c0.27,-3.302 1.011,-4.11 3.167,-4.11l1.954,0l0,20.013l4.717,0l0,-45.82l-7.682,0c-5.458,0 -7.412,2.021 -7.412,7.614l0,10.646c0,2.897 1.078,4.784 3.302,5.525c-1.685,0.674 -2.358,2.358 -2.628,5.458l-1.415,16.576l4.717,0l1.28,-15.902Zm-0.539,-11.657l0,-10.646c0,-2.358 0.741,-3.234 2.695,-3.234l2.965,0l0,17.115l-2.965,0c-1.954,0 -2.695,-0.876 -2.695,-3.234Z" style="fill:#202124;fill-rule:nonzero;stroke:#202124;stroke-width:0.63px;"/><path d="M322.064,52.736l0,-45.82l-15.431,0l0,45.82l4.717,0l0,-41.44l5.997,0l0,41.44l4.717,0Z" style="fill:#202124;fill-rule:nonzero;stroke:#202124;stroke-width:0.63px;"/><path d="M368.76,26.187l0,-11.59c0,-5.391 -2.224,-7.682 -7.008,-7.682l-8.019,0l0,45.82l4.717,0l0,-18.598l3.032,0c5.054,0 7.277,-2.628 7.277,-7.951Zm-4.717,0.135c0,2.493 -0.674,3.437 -2.695,3.437l-2.897,0l0,-18.463l2.561,0c2.291,0 3.032,1.011 3.032,3.302l0,11.725Z" style="fill:#202124;fill-rule:nonzero;stroke:#202124;stroke-width:0.63px;"/><path d="M398.948,44.92c0,5.728 2.965,8.086 7.479,8.086l0.943,0c4.515,0 7.479,-2.358 7.479,-8.086l0,-30.187c0,-5.728 -2.965,-8.086 -7.479,-8.086l-0.943,0c-4.515,0 -7.479,2.358 -7.479,8.086l0,30.187Zm4.717,0l0,-30.187c0,-2.83 1.146,-3.908 2.965,-3.908l0.539,0c1.819,0 2.965,1.078 2.965,3.908l0,30.187c0,2.83 -1.146,3.908 -2.965,3.908l-0.539,0c-1.819,0 -2.965,-1.078 -2.965,-3.908Z" style="fill:#202124;fill-rule:nonzero;stroke:#202124;stroke-width:0.63px;"/><path d="M461.276,45.122l0,-10.04c0,-3.032 -0.741,-4.986 -3.571,-5.66c2.695,-0.741 3.369,-2.628 3.369,-5.525l0,-9.366c0,-5.593 -1.887,-7.614 -7.345,-7.614l-7.614,0l0,45.82l7.816,0c5.458,0 7.345,-2.021 7.345,-7.614Zm-7.547,-33.826c1.954,0 2.695,0.876 2.695,3.234l0,9.366c0,3.032 -1.078,3.571 -3.369,3.571l-2.291,0l0,-16.172l2.965,0Zm2.897,33.826c0,2.358 -0.741,3.234 -2.695,3.234l-3.167,0l0,-16.846l2.291,0c2.561,0 3.571,0.539 3.571,3.571l0,10.04Z" style="fill:#202124;fill-rule:nonzero;stroke:#202124;stroke-width:0.63px;"/><path d="M492.272,52.736l11.522,0l0,-4.38l-6.806,0l0,-17.115l6.064,0l0,-4.245l-6.064,0l0,-15.7l6.738,0l0,-4.38l-11.455,0l0,45.82Z" style="fill:#202124;fill-rule:nonzero;stroke:#202124;stroke-width:0.63px;"/><path d="M549.009,26.187l0,-11.59c0,-5.391 -2.224,-7.682 -7.008,-7.682l-8.019,0l0,45.82l4.717,0l0,-18.598l3.032,0c5.054,0 7.277,-2.628 7.277,-7.951Zm-4.717,0.135c0,2.493 -0.674,3.437 -2.695,3.437l-2.897,0l0,-18.463l2.561,0c2.291,0 3.032,1.011 3.032,3.302l0,11.725Z" style="fill:#202124;fill-rule:nonzero;stroke:#202124;stroke-width:0.63px;"/><path d="M579.6,52.736l11.522,0l0,-4.38l-6.806,0l0,-17.115l6.064,0l0,-4.245l-6.064,0l0,-15.7l6.738,0l0,-4.38l-11.455,0l0,45.82Z" style="fill:#202124;fill-rule:nonzero;stroke:#202124;stroke-width:0.63px;"/><path d="M636.875,52.736l0,-45.82l-4.717,0l0,20.417l-6.132,0l0,-20.417l-4.717,0l0,45.82l4.717,0l0,-21.023l6.132,0l0,21.023l4.717,0Z" style="fill:#202124;fill-rule:nonzero;stroke:#202124;stroke-width:0.63px;"/><path d="M684.11,52.736l0,-45.82l-4.717,0l0,20.417l-6.132,0l0,-20.417l-4.717,0l0,45.82l4.717,0l0,-21.023l6.132,0l0,21.023l4.717,0Z" style="fill:#202124;fill-rule:nonzero;stroke:#202124;stroke-width:0.63px;"/><path d="M726.09,52.736l4.649,0l-5.391,-45.82l-5.862,0l-5.391,45.82l4.515,0l1.011,-10.242l5.458,0l1.011,10.242Zm-3.841,-37.667l0.135,0l2.291,23.045l-4.649,0l2.224,-23.045Z" style="fill:#202124;fill-rule:nonzero;stroke:#202124;stroke-width:0.63px;"/><path d="M765.711,36.834c0.27,-3.302 1.011,-4.11 3.167,-4.11l1.954,0l0,20.013l4.717,0l0,-45.82l-7.682,0c-5.458,0 -7.412,2.021 -7.412,7.614l0,10.646c0,2.897 1.078,4.784 3.302,5.525c-1.685,0.674 -2.358,2.358 -2.628,5.458l-1.415,16.576l4.717,0l1.28,-15.902Zm-0.539,-11.657l0,-10.646c0,-2.358 0.741,-3.234 2.695,-3.234l2.965,0l0,17.115l-2.965,0c-1.954,0 -2.695,-0.876 -2.695,-3.234Z" style="fill:#202124;fill-rule:nonzero;stroke:#202124;stroke-width:0.63px;"/><path d="M855.33,52.736l0,-45.82l-15.431,0l0,45.82l4.717,0l0,-41.44l5.997,0l0,41.44l4.717,0Z" style="fill:#202124;fill-rule:nonzero;stroke:#202124;stroke-width:0.63px;"/><path d="M902.026,26.187l0,-11.59c0,-5.391 -2.224,-7.682 -7.008,-7.682l-8.019,0l0,45.82l4.717,0l0,-18.598l3.032,0c5.054,0 7.277,-2.628 7.277,-7.951Zm-4.717,0.135c0,2.493 -0.674,3.437 -2.695,3.437l-2.897,0l0,-18.463l2.561,0c2.291,0 3.032,1.011 3.032,3.302l0,11.725Z" style="fill:#202124;fill-rule:nonzero;stroke:#202124;stroke-width:0.63px;"/><path d="M941.579,52.736l4.649,0l-5.391,-45.82l-5.862,0l-5.391,45.82l4.515,0l1.011,-10.242l5.458,0l1.011,10.242Zm-3.841,-37.667l0.135,0l2.291,23.045l-4.649,0l2.224,-23.045Z" style="fill:#202124;fill-rule:nonzero;stroke:#202124;stroke-width:0.63px;"/><path d="M986.995,52.736l4.784,0l-6.671,-24.056l6.401,-21.765l-4.784,0l-5.593,20.956l-0.202,0l0,-20.956l-4.717,0l0,45.82l4.717,0l0,-22.371l0.202,0l5.862,22.371Z" style="fill:#202124;fill-rule:nonzero;stroke:#202124;stroke-width:0.63px;"/><path d="M1019.204,6.916l0,4.38l5.525,0l0,41.44l4.717,0l0,-41.44l5.593,0l0,-4.38l-15.835,0Z" style="fill:#202124;fill-rule:nonzero;stroke:#202124;stroke-width:0.63px;"/><path d="M1076.142,52.736l4.447,0l0,-45.82l-4.717,0l-6.603,32.613l-0.135,0l0,-32.613l-4.447,0l0,45.82l4.717,0l6.603,-32.613l0.135,0l0,32.613Z" style="fill:#202124;fill-rule:nonzero;stroke:#202124;stroke-width:0.63px;"/><path d="M1123.04,52.736l4.784,0l-6.671,-24.056l6.401,-21.765l-4.784,0l-5.593,20.956l-0.202,0l0,-20.956l-4.717,0l0,45.82l4.717,0l0,-22.371l0.202,0l5.862,22.371Z" style="fill:#202124;fill-rule:nonzero;stroke:#202124;stroke-width:0.63px;"/><path d="M1156.327,44.92c0,5.728 2.965,8.086 7.479,8.086l0.943,0c4.515,0 7.479,-2.358 7.479,-8.086l0,-30.187c0,-5.728 -2.965,-8.086 -7.479,-8.086l-0.943,0c-4.515,0 -7.479,2.358 -7.479,8.086l0,30.187Zm4.717,0l0,-30.187c0,-2.83 1.146,-3.908 2.965,-3.908l0.539,0c1.819,0 2.965,1.078 2.965,3.908l0,30.187c0,2.83 -1.146,3.908 -2.965,3.908l-0.539,0c-1.819,0 -2.965,-1.078 -2.965,-3.908Z" style="fill:#202124;fill-rule:nonzero;stroke:#202124;stroke-width:0.63px;"/><path d="M1210.975,5.366l0.337,0c3.841,0 5.525,-1.617 5.525,-4.312l0,-0.741l-3.908,0l0,0.472c0,1.078 -0.472,1.819 -1.752,1.819l-0.067,0c-1.28,0 -1.752,-0.741 -1.752,-1.819l0,-0.472l-3.908,0l0,0.741c0,2.695 1.685,4.312 5.525,4.312Zm3.976,47.37l4.447,0l0,-45.82l-4.717,0l-6.603,32.613l-0.135,0l0,-32.613l-4.447,0l0,45.82l4.717,0l6.603,-32.613l0.135,0l0,32.613Z" style="fill:#202124;fill-rule:nonzero;stroke:#202124;stroke-width:0.63px;"/></svg>