<?xml version="1.0" encoding="UTF-8" standalone="no"?><!DOCTYPE svg PUBLIC "-//W3C//DTD SVG 1.1//EN" "http://www.w3.org/Graphics/SVG/1.1/DTD/svg11.dtd"><svg width="100%" height="100%" viewBox="0 0 3285 278" version="1.1" xmlns="http://www.w3.org/2000/svg" xmlns:xlink="http://www.w3.org/1999/xlink" xml:space="preserve" xmlns:serif="http://www.serif.com/" style="fill-rule:evenodd;clip-rule:evenodd;stroke-linejoin:round;stroke-miterlimit:2;"><path d="M631.279,197.983l0,7.583l9.567,0l0,71.75l8.167,0l0,-71.75l9.683,0l0,-7.583l-27.417,0Z" style="fill:#202124;fill-rule:nonzero;"/><path d="M708.863,277.317l19.95,0l0,-7.583l-11.783,0l0,-29.633l10.5,0l0,-7.35l-10.5,0l0,-27.183l11.667,0l0,-7.583l-19.833,0l0,79.333Z" style="fill:#202124;fill-rule:nonzero;"/><path d="M779.213,263.783c0,9.917 5.133,14 12.95,14l1.633,0c7.817,0 12.95,-4.083 12.95,-14l0,-52.267c0,-9.917 -5.133,-14 -12.95,-14l-1.633,0c-7.817,0 -12.95,4.083 -12.95,14l0,52.267Zm8.167,0l0,-52.267c0,-4.9 1.983,-6.767 5.133,-6.767l0.933,0c3.15,0 5.133,1.867 5.133,6.767l0,52.267c0,4.9 -1.983,6.767 -5.133,6.767l-0.933,0c-3.15,0 -5.133,-1.867 -5.133,-6.767Z" style="fill:#202124;fill-rule:nonzero;"/><path d="M885.729,231.35l0,-20.067c0,-9.333 -3.85,-13.3 -12.133,-13.3l-13.883,0l0,79.333l8.167,0l0,-32.2l5.25,0c8.75,0 12.6,-4.55 12.6,-13.767Zm-8.167,0.233c0,4.317 -1.167,5.95 -4.667,5.95l-5.017,0l0,-31.967l4.433,0c3.967,0 5.25,1.75 5.25,5.717l0,20.3Z" style="fill:#202124;fill-rule:nonzero;"/><path d="M957.363,277.317l7.7,0l0,-79.333l-8.167,0l-11.433,56.467l-0.233,0l0,-56.467l-7.7,0l0,79.333l8.167,0l11.433,-56.467l0.233,0l0,56.467Z" style="fill:#202124;fill-rule:nonzero;"/><path d="M1027.363,249.783c0.467,-5.717 1.75,-7.117 5.483,-7.117l3.383,0l0,34.65l8.167,0l0,-79.333l-13.3,0c-9.45,0 -12.833,3.5 -12.833,13.183l0,18.433c0,5.017 1.867,8.283 5.717,9.567c-2.917,1.167 -4.083,4.083 -4.55,9.45l-2.45,28.7l8.167,0l2.217,-27.533Zm-0.933,-20.183l0,-18.433c0,-4.083 1.283,-5.6 4.667,-5.6l5.133,0l0,29.633l-5.133,0c-3.383,0 -4.667,-1.517 -4.667,-5.6Z" style="fill:#202124;fill-rule:nonzero;"/><path d="M1180.196,277.317l0,-79.333l-26.717,0l0,79.333l8.167,0l0,-71.75l10.383,0l0,71.75l8.167,0Z" style="fill:#202124;fill-rule:nonzero;"/><path d="M1259.879,231.35l0,-20.067c0,-9.333 -3.85,-13.3 -12.133,-13.3l-13.883,0l0,79.333l8.167,0l0,-32.2l5.25,0c8.75,0 12.6,-4.55 12.6,-13.767Zm-8.167,0.233c0,4.317 -1.167,5.95 -4.667,5.95l-5.017,0l0,-31.967l4.433,0c3.967,0 5.25,1.75 5.25,5.717l0,20.3Z" style="fill:#202124;fill-rule:nonzero;"/><path d="M1310.979,263.783c0,9.917 5.133,14 12.95,14l1.633,0c7.817,0 12.95,-4.083 12.95,-14l0,-52.267c0,-9.917 -5.133,-14 -12.95,-14l-1.633,0c-7.817,0 -12.95,4.083 -12.95,14l0,52.267Zm8.167,0l0,-52.267c0,-4.9 1.983,-6.767 5.133,-6.767l0.933,0c3.15,0 5.133,1.867 5.133,6.767l0,52.267c0,4.9 -1.983,6.767 -5.133,6.767l-0.933,0c-3.15,0 -5.133,-1.867 -5.133,-6.767Z" style="fill:#202124;fill-rule:nonzero;"/><path d="M1417.729,264.133l0,-17.383c0,-5.25 -1.283,-8.633 -6.183,-9.8c4.667,-1.283 5.833,-4.55 5.833,-9.567l0,-16.217c0,-9.683 -3.267,-13.183 -12.717,-13.183l-13.183,0l0,79.333l13.533,0c9.45,0 12.717,-3.5 12.717,-13.183Zm-13.067,-58.567c3.383,0 4.667,1.517 4.667,5.6l0,16.217c0,5.25 -1.867,6.183 -5.833,6.183l-3.967,0l0,-28l5.133,0Zm5.017,58.567c0,4.083 -1.283,5.6 -4.667,5.6l-5.483,0l0,-29.167l3.967,0c4.433,0 6.183,0.933 6.183,6.183l0,17.383Z" style="fill:#202124;fill-rule:nonzero;"/><path d="M1470.229,277.317l19.95,0l0,-7.583l-11.783,0l0,-29.633l10.5,0l0,-7.35l-10.5,0l0,-27.183l11.667,0l0,-7.583l-19.833,0l0,79.333Z" style="fill:#202124;fill-rule:nonzero;"/><path d="M1567.296,231.35l0,-20.067c0,-9.333 -3.85,-13.3 -12.133,-13.3l-13.883,0l0,79.333l8.167,0l0,-32.2l5.25,0c8.75,0 12.6,-4.55 12.6,-13.767Zm-8.167,0.233c0,4.317 -1.167,5.95 -4.667,5.95l-5.017,0l0,-31.967l4.433,0c3.967,0 5.25,1.75 5.25,5.717l0,20.3Z" style="fill:#202124;fill-rule:nonzero;"/><path d="M1619.096,277.317l19.95,0l0,-7.583l-11.783,0l0,-29.633l10.5,0l0,-7.35l-10.5,0l0,-27.183l11.667,0l0,-7.583l-19.833,0l0,79.333Z" style="fill:#202124;fill-rule:nonzero;"/><path d="M1717.096,277.317l0,-79.333l-8.167,0l0,35.35l-10.617,0l0,-35.35l-8.167,0l0,79.333l8.167,0l0,-36.4l10.617,0l0,36.4l8.167,0Z" style="fill:#202124;fill-rule:nonzero;"/><path d="M1797.713,277.317l0,-79.333l-8.167,0l0,35.35l-10.617,0l0,-35.35l-8.167,0l0,79.333l8.167,0l0,-36.4l10.617,0l0,36.4l8.167,0Z" style="fill:#202124;fill-rule:nonzero;"/><path d="M1869.229,277.317l8.05,0l-9.333,-79.333l-10.15,0l-9.333,79.333l7.817,0l1.75,-17.733l9.45,0l1.75,17.733Zm-6.65,-65.217l0.233,0l3.967,39.9l-8.05,0l3.85,-39.9Z" style="fill:#202124;fill-rule:nonzero;"/><path d="M1936.663,249.783c0.467,-5.717 1.75,-7.117 5.483,-7.117l3.383,0l0,34.65l8.167,0l0,-79.333l-13.3,0c-9.45,0 -12.833,3.5 -12.833,13.183l0,18.433c0,5.017 1.867,8.283 5.717,9.567c-2.917,1.167 -4.083,4.083 -4.55,9.45l-2.45,28.7l8.167,0l2.217,-27.533Zm-0.933,-20.183l0,-18.433c0,-4.083 1.283,-5.6 4.667,-5.6l5.133,0l0,29.633l-5.133,0c-3.383,0 -4.667,-1.517 -4.667,-5.6Z" style="fill:#202124;fill-rule:nonzero;"/><path d="M2089.496,277.317l0,-79.333l-26.717,0l0,79.333l8.167,0l0,-71.75l10.383,0l0,71.75l8.167,0Z" style="fill:#202124;fill-rule:nonzero;"/><path d="M2169.179,231.35l0,-20.067c0,-9.333 -3.85,-13.3 -12.133,-13.3l-13.883,0l0,79.333l8.167,0l0,-32.2l5.25,0c8.75,0 12.6,-4.55 12.6,-13.767Zm-8.167,0.233c0,4.317 -1.167,5.95 -4.667,5.95l-5.017,0l0,-31.967l4.433,0c3.967,0 5.25,1.75 5.25,5.717l0,20.3Z" style="fill:#202124;fill-rule:nonzero;"/><path d="M2236.496,277.317l8.05,0l-9.333,-79.333l-10.15,0l-9.333,79.333l7.817,0l1.75,-17.733l9.45,0l1.75,17.733Zm-6.65,-65.217l0.233,0l3.967,39.9l-8.05,0l3.85,-39.9Z" style="fill:#202124;fill-rule:nonzero;"/><path d="M2313.963,277.317l8.283,0l-11.55,-41.65l11.083,-37.683l-8.283,0l-9.683,36.283l-0.35,0l0,-36.283l-8.167,0l0,79.333l8.167,0l0,-38.733l0.35,0l10.15,38.733Z" style="fill:#202124;fill-rule:nonzero;"/><path d="M2368.563,197.983l0,7.583l9.567,0l0,71.75l8.167,0l0,-71.75l9.683,0l0,-7.583l-27.417,0Z" style="fill:#202124;fill-rule:nonzero;"/><path d="M2465.979,277.317l7.7,0l0,-79.333l-8.167,0l-11.433,56.467l-0.233,0l0,-56.467l-7.7,0l0,79.333l8.167,0l11.433,-56.467l0.233,0l0,56.467Z" style="fill:#202124;fill-rule:nonzero;"/><path d="M2546.013,277.317l8.283,0l-11.55,-41.65l11.083,-37.683l-8.283,0l-9.683,36.283l-0.35,0l0,-36.283l-8.167,0l0,79.333l8.167,0l0,-38.733l0.35,0l10.15,38.733Z" style="fill:#202124;fill-rule:nonzero;"/><path d="M2602.479,263.783c0,9.917 5.133,14 12.95,14l1.633,0c7.817,0 12.95,-4.083 12.95,-14l0,-52.267c0,-9.917 -5.133,-14 -12.95,-14l-1.633,0c-7.817,0 -12.95,4.083 -12.95,14l0,52.267Zm8.167,0l0,-52.267c0,-4.9 1.983,-6.767 5.133,-6.767l0.933,0c3.15,0 5.133,1.867 5.133,6.767l0,52.267c0,4.9 -1.983,6.767 -5.133,6.767l-0.933,0c-3.15,0 -5.133,-1.867 -5.133,-6.767Z" style="fill:#202124;fill-rule:nonzero;"/><path d="M2695.929,195.3l0.583,0c6.65,0 9.567,-2.8 9.567,-7.467l0,-1.283l-6.767,0l0,0.817c0,1.867 -0.817,3.15 -3.033,3.15l-0.117,0c-2.217,0 -3.033,-1.283 -3.033,-3.15l0,-0.817l-6.767,0l0,1.283c0,4.667 2.917,7.467 9.567,7.467Zm6.883,82.017l7.7,0l0,-79.333l-8.167,0l-11.433,56.467l-0.233,0l0,-56.467l-7.7,0l0,79.333l8.167,0l11.433,-56.467l0.233,0l0,56.467Z" style="fill:#202124;fill-rule:nonzero;"/><path d="M170.146,83.687l-57.085,0l-0.739,2.032c-2.402,6.466 -10.345,10.9 -26.418,10.9l-1.663,0c-19.582,0 -28.45,-7.02 -28.45,-19.213l0,-1.478c0,-12.193 8.868,-19.213 28.45,-19.213l1.663,0c16.072,0 24.016,4.434 26.418,10.9l0.739,2.032l57.085,0l-0.185,-2.032c-3.141,-33.808 -37.872,-44.522 -83.503,-44.522l-2.771,0c-47.848,0 -83.687,11.269 -83.687,52.282l0,2.586c0,41.012 35.84,52.282 83.687,52.282l2.771,0c45.631,0 80.362,-10.715 83.503,-44.522l0.185,-2.032Z" style="fill:#202124;fill-rule:nonzero;"/><path d="M278.589,62.812l0,64.659l55.422,0l0,-101.607l-139.664,0l-1.478,44.153c-0.554,14.594 -4.249,18.659 -16.627,18.659l-4.434,0l0,39.719l14.779,0c42.86,0 51.543,-13.856 53.021,-45.631l0.924,-19.952l38.057,0Z" style="fill:#202124;fill-rule:nonzero;"/><path d="M402.365,127.471l46.185,-52.651l0,52.651l54.498,0l0,-101.607l-59.302,0l-46.185,52.651l0,-52.651l-54.498,0l0,101.607l59.302,0Z" style="fill:#202124;fill-rule:nonzero;"/><path d="M652.134,25.864l-55.422,0l0,64.659l-29.189,0l0,-64.659l-55.422,0l0,101.607l224.644,0l0,-101.607l-55.422,0l0,64.659l-29.189,0l0,-64.659Z" style="fill:#202124;fill-rule:nonzero;"/><path d="M841.862,127.471l69.832,0l-53.205,-54.498l51.543,-47.109l-68.539,0l-40.273,44.153l0,-44.153l-55.422,0l0,101.607l55.422,0l0,-45.077l40.643,45.077Z" style="fill:#202124;fill-rule:nonzero;"/><path d="M984.482,23.093c-48.587,0 -84.611,11.269 -84.611,52.282l0,2.586c0,41.012 36.024,52.282 84.611,52.282l2.586,0c48.587,0 84.611,-11.269 84.611,-52.282l0,-2.586c0,-41.012 -36.024,-52.282 -84.611,-52.282l-2.586,0Zm0.554,33.623l1.478,0c20.321,0 29.374,7.02 29.374,19.213l0,1.478c0,12.193 -9.052,19.213 -29.374,19.213l-1.478,0c-20.321,0 -29.374,-7.02 -29.374,-19.213l0,-1.478c0,-12.193 9.052,-19.213 29.374,-19.213Z" style="fill:#202124;fill-rule:nonzero;"/><path d="M1156.66,127.471l45.631,0l28.265,-64.844l0,64.844l53.759,0l0,-101.607l-82.209,0l-22.538,54.868l-22.723,-54.868l-78.515,0l0,101.607l50.065,0l0,-64.844l28.265,64.844Z" style="fill:#202124;fill-rule:nonzero;"/><path d="M1373.083,118.234l0,35.101l23.832,0c38.611,0 51.912,-7.574 65.952,-35.47l46.555,-92.001l-58.193,0l-29.004,62.812l-29.928,-62.812l-61.334,0l44.707,84.057l37.133,0c-2.956,5.357 -7.02,8.313 -17.55,8.313l-22.169,0Z" style="fill:#202124;fill-rule:nonzero;"/><path d="M1591.262,127.471l45.631,0l28.265,-64.844l0,64.844l53.759,0l0,-101.607l-82.209,0l-22.538,54.868l-22.723,-54.868l-78.515,0l0,101.607l50.065,0l0,-64.844l28.265,64.844Z" style="fill:#202124;fill-rule:nonzero;"/><path d="M1783.392,94.218l48.402,0l0,33.253l55.422,0l0,-101.607l-55.422,0l0,31.775l-48.402,0l0,-31.775l-55.422,0l0,101.607l55.422,0l0,-33.253Z" style="fill:#202124;fill-rule:nonzero;"/><path d="M2052.374,70.386c0,-39.719 -31.96,-47.294 -72.418,-47.294l-3.325,0c-47.848,0 -73.711,10.345 -79.438,36.024l-0.369,1.663l56.715,0l0.369,-0.924c2.032,-4.988 8.313,-7.574 22.723,-7.574l1.847,0c14.594,0 20.506,4.619 20.506,12.378l0,0.369c-10.345,0 -25.864,0 -42.306,0.369c-49.326,1.108 -62.996,11.084 -62.996,31.591l0,1.108c0,20.321 17.92,31.221 55.053,31.221l2.771,0c21.615,0 37.502,-4.988 48.033,-14.779l0,12.932l52.836,0l0,-57.085Zm-81.84,29.189c-15.149,0 -20.137,-1.478 -20.137,-5.912l0,-0.369c0,-4.619 4.249,-5.912 20.506,-6.466c11.269,-0.369 19.582,-0.554 28.081,-0.554c-0.739,9.976 -10.715,13.301 -26.048,13.301l-2.402,0Z" style="fill:#202124;fill-rule:nonzero;"/><path d="M2135.138,98.836l28.265,0l0,28.635l55.422,0l0,-101.607l-100.684,0c-41.012,0 -57.454,13.117 -57.454,31.591l0,1.478c0,12.378 6.281,21.799 20.691,25.494c-12.378,2.771 -17.92,9.607 -19.952,24.94l-2.402,18.105l57.27,0l1.663,-13.117c1.478,-11.823 5.912,-15.518 17.181,-15.518Zm-5.542,-44.707l33.808,0l0,16.442l-33.808,0c-7.944,0 -12.193,-2.586 -12.193,-7.944l0,-0.554c0,-5.357 4.249,-7.944 12.193,-7.944Z" style="fill:#202124;fill-rule:nonzero;"/><path d="M2307.593,118.234l0,35.101l23.832,0c38.611,0 51.912,-7.574 65.952,-35.47l46.555,-92.001l-58.193,0l-29.004,62.812l-29.928,-62.812l-61.334,0l44.707,84.057l37.133,0c-2.956,5.357 -7.02,8.313 -17.55,8.313l-22.169,0Z" style="fill:#202124;fill-rule:nonzero;"/><path d="M2440.052,67.246l0,3.695c0,42.86 26.048,59.302 82.579,59.302l4.803,0c56.9,0 82.764,-13.301 82.764,-41.751l0,-1.847c0,-23.462 -17.735,-36.579 -71.679,-36.579l-2.217,0c-21.615,0 -36.763,4.064 -46.37,9.052l0.185,-1.108c1.293,-8.129 7.574,-13.671 28.081,-14.594l34.916,-1.663c23.832,-1.108 31.221,-3.141 39.35,-7.944c8.868,-5.357 13.117,-15.703 13.117,-28.45l0,-5.357l-55.422,0l-0.369,1.663c-0.924,4.064 -5.357,5.357 -16.811,5.912l-23.832,1.293c-45.077,2.402 -69.093,20.137 -69.093,58.378Zm57.454,19.398c0,-6.281 5.912,-8.868 27.526,-8.868l1.847,0c21.06,0 27.342,2.956 27.342,8.683l0,0.369c0,6.835 -7.205,8.683 -28.265,8.683l-1.663,0c-20.321,0 -26.787,-2.032 -26.787,-8.313l0,-0.554Z" style="fill:#202124;fill-rule:nonzero;"/><path d="M2698.688,23.093c-48.587,0 -84.611,11.269 -84.611,52.282l0,2.586c0,41.012 36.024,52.282 84.611,52.282l2.586,0c48.587,0 84.611,-11.269 84.611,-52.282l0,-2.586c0,-41.012 -36.024,-52.282 -84.611,-52.282l-2.586,0Zm0.554,33.623l1.478,0c20.321,0 29.374,7.02 29.374,19.213l0,1.478c0,12.193 -9.052,19.213 -29.374,19.213l-1.478,0c-20.321,0 -29.374,-7.02 -29.374,-19.213l0,-1.478c0,-12.193 9.052,-19.213 29.374,-19.213Z" style="fill:#202124;fill-rule:nonzero;"/><path d="M2892.112,129.318l2.771,0c38.795,0 65.768,-17.181 65.768,-50.804l0,-3.695c0,-33.623 -25.125,-50.804 -63.92,-50.804l-2.771,0c-18.474,0 -36.948,5.542 -47.848,14.779l0,-12.932l-53.575,0l0,125.623l55.422,0l0,-32.33c14.594,7.574 28.82,10.161 44.153,10.161Zm-18.659,-32.699c-19.398,0 -28.82,-7.205 -28.82,-19.213l0,-1.478c0,-12.008 9.607,-19.213 29.004,-19.213l2.586,0c19.398,0 28.635,6.466 28.635,19.213l0,1.478c0,12.747 -9.237,19.213 -28.635,19.213l-2.771,0Z" style="fill:#202124;fill-rule:nonzero;"/><path d="M3063.366,127.471l69.832,0l-53.205,-54.498l51.543,-47.109l-68.539,0l-40.273,44.153l0,-44.153l-55.422,0l0,101.607l55.422,0l0,-45.077l40.643,45.077Z" style="fill:#202124;fill-rule:nonzero;"/><path d="M3284.5,70.386c0,-39.719 -31.96,-47.294 -72.418,-47.294l-3.325,0c-47.848,0 -73.711,10.345 -79.438,36.024l-0.369,1.663l56.715,0l0.369,-0.924c2.032,-4.988 8.313,-7.574 22.723,-7.574l1.847,0c14.594,0 20.506,4.619 20.506,12.378l0,0.369c-10.345,0 -25.864,0 -42.306,0.369c-49.326,1.108 -62.996,11.084 -62.996,31.591l0,1.108c0,20.321 17.92,31.221 55.053,31.221l2.771,0c21.615,0 37.502,-4.988 48.033,-14.779l0,12.932l52.836,0l0,-57.085Zm-81.84,29.189c-15.149,0 -20.137,-1.478 -20.137,-5.912l0,-0.369c0,-4.619 4.249,-5.912 20.506,-6.466c11.269,-0.369 19.582,-0.554 28.081,-0.554c-0.739,9.976 -10.715,13.301 -26.048,13.301l-2.402,0Z" style="fill:#202124;fill-rule:nonzero;"/></svg>